Java

<?xml version="1.0" encoding="UTF-8" standalone="no"?>
<svg width="256px" height="346px" viewBox="0 0 256 346" version="1.1" xmlns="http://www.w3.org/2000/svg" xmlns:xlink="http://www.w3.org/1999/xlink" preserveAspectRatio="xMidYMid">
	<g>
		<path d="M82.5539491,267.472524 C82.5539491,267.472524 69.35552,275.147869 91.9468218,277.745105 C119.315549,280.867375 133.303389,280.419607 163.463913,274.711273 C163.463913,274.711273 171.393396,279.683258 182.467491,283.989644 C114.855564,312.966982 29.4483782,282.311215 82.5539491,267.472524" fill="#5382A1"></path>
		<path d="M74.2921309,229.658996 C74.2921309,229.658996 59.4888145,240.616727 82.0968727,242.955171 C111.333004,245.971316 134.421411,246.218007 174.373236,238.524975 C174.373236,238.524975 179.899113,244.127185 188.588218,247.190807 C106.841367,271.094691 15.79008,249.075898 74.2921309,229.658996" fill="#5382A1"></path>
		<path d="M143.941818,165.514705 C160.601367,184.695156 139.564684,201.955142 139.564684,201.955142 C139.564684,201.955142 181.866124,180.117876 162.438982,152.772422 C144.294633,127.271098 130.380335,114.600495 205.706705,70.9138618 C205.706705,70.9138618 87.4691491,100.44416 143.941818,165.514705" fill="#E76F00"></path>
		<path d="M233.364015,295.441687 C233.364015,295.441687 243.131113,303.489396 222.60736,309.715316 C183.580858,321.537862 60.1748945,325.107898 25.8932364,310.186356 C13.5698618,304.825251 36.67968,297.385425 43.9491491,295.824291 C51.5304727,294.180305 55.8629236,294.486575 55.8629236,294.486575 C42.15808,284.832116 -32.7195927,313.443607 17.8287709,321.637469 C155.681513,343.993251 269.121164,311.570618 233.364015,295.441687" fill="#5382A1"></path>
		<path d="M88.9008873,190.479825 C88.9008873,190.479825 26.1287564,205.389265 66.6717091,210.803433 C83.7901964,213.095331 117.915462,212.576815 149.702284,209.913484 C175.680233,207.722124 201.765236,203.062924 201.765236,203.062924 C201.765236,203.062924 192.605091,206.985775 185.977949,211.510924 C122.233949,228.275665 -0.907636364,220.476509 34.5432436,203.328233 C64.5241018,188.83584 88.9008873,190.479825 88.9008873,190.479825" fill="#5382A1"></path>
		<path d="M201.506444,253.422313 C266.305164,219.7504 236.344785,187.392 215.432844,191.751447 C210.307258,192.818269 208.021876,193.742662 208.021876,193.742662 C208.021876,193.742662 209.924655,190.761891 213.558924,189.471651 C254.929455,174.927127 286.746065,232.368873 200.204102,255.11936 C200.204102,255.120291 201.206691,254.223825 201.506444,253.422313" fill="#5382A1"></path>
		<path d="M162.438982,0.371432727 C162.438982,0.371432727 198.325527,36.27008 128.402153,91.4720582 C72.3307055,135.753542 115.616116,161.001658 128.37888,189.848669 C95.6490473,160.318371 71.6297309,134.322735 87.7437673,110.128407 C111.395375,74.6132945 176.918342,57.3942691 162.438982,0.371432727" fill="#E76F00"></path>
		<path d="M95.2683055,344.665367 C157.466996,348.646865 252.980131,342.45632 255.24224,313.025629 C255.24224,313.025629 250.893964,324.182575 203.838371,333.042967 C150.750487,343.033484 85.2740655,341.867055 46.4393309,335.464262 C46.4402618,335.463331 54.3892945,342.043927 95.2683055,344.665367" fill="#5382A1"></path>
	</g>
</svg>

  Sql svg

<svg xmlns="http://www.w3.org/2000/svg" width="432.071pt" height="445.383pt" viewBox="0 0 432.071 445.383" xml:space="preserve">
<g id="orginal" style="fill-rule:nonzero;clip-rule:nonzero;stroke:#000000;stroke-miterlimit:4;">
	</g>
<g id="Layer_x0020_3" style="fill-rule:nonzero;clip-rule:nonzero;fill:none;stroke:#FFFFFF;stroke-width:12.4651;stroke-linecap:round;stroke-linejoin:round;stroke-miterlimit:4;">
<path style="fill:#000000;stroke:#000000;stroke-width:37.3953;stroke-linecap:butt;stroke-linejoin:miter;" d="M323.205,324.227c2.833-23.601,1.984-27.062,19.563-23.239l4.463,0.392c13.517,0.615,31.199-2.174,41.587-7c22.362-10.376,35.622-27.7,13.572-23.148c-50.297,10.376-53.755-6.655-53.755-6.655c53.111-78.803,75.313-178.836,56.149-203.322    C352.514-5.534,262.036,26.049,260.522,26.869l-0.482,0.089c-9.938-2.062-21.06-3.294-33.554-3.496c-22.761-0.374-40.032,5.967-53.133,15.904c0,0-161.408-66.498-153.899,83.628c1.597,31.936,45.777,241.655,98.47,178.31    c19.259-23.163,37.871-42.748,37.871-42.748c9.242,6.14,20.307,9.272,31.912,8.147l0.897-0.765c-0.281,2.876-0.157,5.689,0.359,9.019c-13.572,15.167-9.584,17.83-36.723,23.416c-27.457,5.659-11.326,15.734-0.797,18.367c12.768,3.193,42.305,7.716,62.268-20.224    l-0.795,3.188c5.325,4.26,4.965,30.619,5.72,49.452c0.756,18.834,2.017,36.409,5.856,46.771c3.839,10.36,8.369,37.05,44.036,29.406c29.809-6.388,52.6-15.582,54.677-101.107"/>
<path style="fill:#336791;stroke:none;" d="M402.395,271.23c-50.302,10.376-53.76-6.655-53.76-6.655c53.111-78.808,75.313-178.843,56.153-203.326c-52.27-66.785-142.752-35.2-144.262-34.38l-0.486,0.087c-9.938-2.063-21.06-3.292-33.56-3.496c-22.761-0.373-40.026,5.967-53.127,15.902    c0,0-161.411-66.495-153.904,83.63c1.597,31.938,45.776,241.657,98.471,178.312c19.26-23.163,37.869-42.748,37.869-42.748c9.243,6.14,20.308,9.272,31.908,8.147l0.901-0.765c-0.28,2.876-0.152,5.689,0.361,9.019c-13.575,15.167-9.586,17.83-36.723,23.416    c-27.459,5.659-11.328,15.734-0.796,18.367c12.768,3.193,42.307,7.716,62.266-20.224l-0.796,3.188c5.319,4.26,9.054,27.711,8.428,48.969c-0.626,21.259-1.044,35.854,3.147,47.254c4.191,11.4,8.368,37.05,44.042,29.406c29.809-6.388,45.256-22.942,47.405-50.555    c1.525-19.631,4.976-16.729,5.194-34.28l2.768-8.309c3.192-26.611,0.507-35.196,18.872-31.203l4.463,0.392c13.517,0.615,31.208-2.174,41.591-7c22.358-10.376,35.618-27.7,13.573-23.148z"/>
<path d="M215.866,286.484c-1.385,49.516,0.348,99.377,5.193,111.495c4.848,12.118,15.223,35.688,50.9,28.045c29.806-6.39,40.651-18.756,45.357-46.051c3.466-20.082,10.148-75.854,11.005-87.281"/>
<path d="M173.104,38.256c0,0-161.521-66.016-154.012,84.109c1.597,31.938,45.779,241.664,98.473,178.316c19.256-23.166,36.671-41.335,36.671-41.335"/>
<path d="M260.349,26.207c-5.591,1.753,89.848-34.889,144.087,34.417c19.159,24.484-3.043,124.519-56.153,203.329"/>
<path style="stroke-linejoin:bevel;" d="M348.282,263.953c0,0,3.461,17.036,53.764,6.653c22.04-4.552,8.776,12.774-13.577,23.155c-18.345,8.514-59.474,10.696-60.146-1.069c-1.729-30.355,21.647-21.133,19.96-28.739c-1.525-6.85-11.979-13.573-18.894-30.338    c-6.037-14.633-82.796-126.849,21.287-110.183c3.813-0.789-27.146-99.002-124.553-100.599c-97.385-1.597-94.19,119.762-94.19,119.762"/>
<path d="M188.604,274.334c-13.577,15.166-9.584,17.829-36.723,23.417c-27.459,5.66-11.326,15.733-0.797,18.365c12.768,3.195,42.307,7.718,62.266-20.229c6.078-8.509-0.036-22.086-8.385-25.547c-4.034-1.671-9.428-3.765-16.361,3.994z"/>
<path d="M187.715,274.069c-1.368-8.917,2.93-19.528,7.536-31.942c6.922-18.626,22.893-37.255,10.117-96.339c-9.523-44.029-73.396-9.163-73.436-3.193c-0.039,5.968,2.889,30.26-1.067,58.548c-5.162,36.913,23.488,68.132,56.479,64.938"/>
<path style="fill:#FFFFFF;stroke-width:4.155;stroke-linecap:butt;stroke-linejoin:miter;" d="M172.517,141.7c-0.288,2.039,3.733,7.48,8.976,8.207c5.234,0.73,9.714-3.522,9.998-5.559c0.284-2.039-3.732-4.285-8.977-5.015c-5.237-0.731-9.719,0.333-9.996,2.367z"/>
<path style="fill:#FFFFFF;stroke-width:2.0775;stroke-linecap:butt;stroke-linejoin:miter;" d="M331.941,137.543c0.284,2.039-3.732,7.48-8.976,8.207c-5.238,0.73-9.718-3.522-10.005-5.559c-0.277-2.039,3.74-4.285,8.979-5.015c5.239-0.73,9.718,0.333,10.002,2.368z"/>
<path d="M350.676,123.432c0.863,15.994-3.445,26.888-3.988,43.914c-0.804,24.748,11.799,53.074-7.191,81.435"/>
<path style="stroke-width:3;" d="M0,60.232"/>
</g>
</svg>

<div>
  <svg viewBox="0 0 452 520">
    <title>HTML5 Logo Badge</title>
    <path fill='RGB(227,79,38)' d='M 41,460 L 0,0 451,0 410,460 225,512'/>
    <path fill='RGB(239,101,42)' d='M 226,472 L 375,431 410,37 226,37'/>
    <path fill='RGB(236,237,238)' d='M 226,208 L 151,208 146,150 226,150 226,94 84,94 99,265 226,265 z M 226,355 L162,338 158,293 102,293 109,382 226,414 z'/>
    <path fill='RGB(255,255,255)' d='M 226,265 L 295,265 288,338 226,355 226,414 341,382 357,208 226,208 z M 226,94 L226,150 362,150 367,94 z'/>
  </svg>
</div>
<div>
  <svg viewBox="0 0 452 520">
    <title>Javascript Logo Badge</title>
    <path fill='RGB(229,162,40)' d='M 0,0 L 451,0 410,460 225,512 41,460'/>
    <path fill='RGB(241,191,38)' d='M 226,472 L375,431 410,37 226,37'/>
    <path fill='RGB(236,237,238)' d='M 226,94 L 113,94 102,265 226,265 226,208 160,208 165,150 226,150 z M 226,355 L 162,338 158,293 102,293 109,382 226,414 z'/>
    <path fill='RGB(255,255,255)' d='M 226,265 L 295,265 288,338 226,355 226,414 341,382 357,208 226,208 z M 226,94 L 339,94 357,180 301,180 293,150 226,150 z'/>
  </svg>
</div>
<div>
  <svg viewBox="0 0 452 520">
    <title>CSS3 Logo Badge</title>
    <path fill='RGB(12,115,184)' d='M 41,460 L 0,0 451,0 410,460 225,512'/>
    <path fill='RGB(48,169,220)' d='M 226,472 L 375,431 410,37 226,37'/>
    <path fill='RGB(236,237,238)' d='M 226,208 L 94,208 99,265 226,265 z M 226,94 L 84,94 89,150 226,150 z M 226,355 L 102,322 109,382 226,414 z'/>
    <path fill='RGB(255,255,255)' d='M 226,265 L 295,265 288,338 226,355 226,414 341,382 367,94 226,94 226,150 306,150 300,208 226,208 z'/>
  </svg>
</div>

linkedin

<svg xmlns="http://www.w3.org/2000/svg" width="16" height="16" fill="currentColor" class="bi bi-linkedin" viewBox="0 0 16 16">
  <path d="M0 1.146C0 .513.526 0 1.175 0h13.65C15.474 0 16 .513 16 1.146v13.708c0 .633-.526 1.146-1.175 1.146H1.175C.526 16 0 15.487 0 14.854V1.146zm4.943 12.248V6.169H2.542v7.225h2.401zm-1.2-8.212c.837 0 1.358-.554 1.358-1.248-.015-.709-.52-1.248-1.342-1.248-.822 0-1.359.54-1.359 1.248 0 .694.521 1.248 1.327 1.248h.016zm4.908 8.212V9.359c0-.216.016-.432.08-.586.173-.431.568-.878 1.232-.878.869 0 1.216.662 1.216 1.634v3.865h2.401V9.25c0-2.22-1.184-3.252-2.764-3.252-1.274 0-1.845.7-2.165 1.193v.025h-.016a5.54 5.54 0 0 1 .016-.025V6.169h-2.4c.03.678 0 7.225 0 7.225h2.4z"/>
</svg>

Github

<svg xmlns="http://www.w3.org/2000/svg" viewBox="0 0 448 512"><path d="M400 32H48C21.5 32 0 53.5 0 80v352c0 26.5 21.5 48 48 48h352c26.5 0 48-21.5 48-48V80c0-26.5-21.5-48-48-48zM277.3 415.7c-8.4 1.5-11.5-3.7-11.5-8 0-5.4.2-33 .2-55.3 0-15.6-5.2-25.5-11.3-30.7 37-4.1 76-9.2 76-73.1 0-18.2-6.5-27.3-17.1-39 1.7-4.3 7.4-22-1.7-45-13.9-4.3-45.7 17.9-45.7 17.9-13.2-3.7-27.5-5.6-41.6-5.6-14.1 0-28.4 1.9-41.6 5.6 0 0-31.8-22.2-45.7-17.9-9.1 22.9-3.5 40.6-1.7 45-10.6 11.7-15.6 20.8-15.6 39 0 63.6 37.3 69 74.3 73.1-4.8 4.3-9.1 11.7-10.6 22.3-9.5 4.3-33.8 11.7-48.3-13.9-9.1-15.8-25.5-17.1-25.5-17.1-16.2-.2-1.1 10.2-1.1 10.2 10.8 5 18.4 24.2 18.4 24.2 9.7 29.7 56.1 19.7 56.1 19.7 0 13.9.2 36.5.2 40.6 0 4.3-3 9.5-11.5 8-66-22.1-112.2-84.9-112.2-158.3 0-91.8 70.2-161.5 162-161.5S388 165.6 388 257.4c.1 73.4-44.7 136.3-110.7 158.3zm-98.1-61.1c-1.9.4-3.7-.4-3.9-1.7-.2-1.5 1.1-2.8 3-3.2 1.9-.2 3.7.6 3.9 1.9.3 1.3-1 2.6-3 3zm-9.5-.9c0 1.3-1.5 2.4-3.5 2.4-2.2.2-3.7-.9-3.7-2.4 0-1.3 1.5-2.4 3.5-2.4 1.9-.2 3.7.9 3.7 2.4zm-13.7-1.1c-.4 1.3-2.4 1.9-4.1 1.3-1.9-.4-3.2-1.9-2.8-3.2.4-1.3 2.4-1.9 4.1-1.5 2 .6 3.3 2.1 2.8 3.4zm-12.3-5.4c-.9 1.1-2.8.9-4.3-.6-1.5-1.3-1.9-3.2-.9-4.1.9-1.1 2.8-.9 4.3.6 1.3 1.3 1.8 3.3.9 4.1zm-9.1-9.1c-.9.6-2.6 0-3.7-1.5s-1.1-3.2 0-3.9c1.1-.9 2.8-.2 3.7 1.3 1.1 1.5 1.1 3.3 0 4.1zm-6.5-9.7c-.9.9-2.4.4-3.5-.6-1.1-1.3-1.3-2.8-.4-3.5.9-.9 2.4-.4 3.5.6 1.1 1.3 1.3 2.8.4 3.5zm-6.7-7.4c-.4.9-1.7 1.1-2.8.4-1.3-.6-1.9-1.7-1.5-2.6.4-.6 1.5-.9 2.8-.4 1.3.7 1.9 1.8 1.5 2.6z"/></svg>

<svg xmlns:dc="http://purl.org/dc/elements/1.1/" xmlns:cc="http://creativecommons.org/ns#" xmlns:rdf="http://www.w3.org/1999/02/22-rdf-syntax-ns#" xmlns:svg="http://www.w3.org/2000/svg" xmlns="http://www.w3.org/2000/svg" xmlns:sodipodi="http://sodipodi.sourceforge.net/DTD/sodipodi-0.dtd" xmlns:inkscape="http://www.inkscape.org/namespaces/inkscape" version="1.1" id="Layer_1" x="0px" y="0px" width="103.17322" height="104.31332" viewBox="0 0 103.17322 104.31332" enable-background="new 0 0 190 50" xml:space="preserve" inkscape:version="0.48.2 r9819" sodipodi:docname="Outlook_logo.svg"><metadata id="metadata45"><rdf:RDF><cc:Work rdf:about=""><dc:format>image/svg+xml</dc:format><dc:type rdf:resource="http://purl.org/dc/dcmitype/StillImage"/><dc:title/></cc:Work></rdf:RDF></metadata><defs id="defs43"/><sodipodi:namedview pagecolor="#ffffff" bordercolor="#666666" borderopacity="1" objecttolerance="10" gridtolerance="10" guidetolerance="10" inkscape:pageopacity="0" inkscape:pageshadow="2" inkscape:window-width="1600" inkscape:window-height="837" id="namedview41" showgrid="false" fit-margin-top="0" fit-margin-left="0" fit-margin-right="0" fit-margin-bottom="0" inkscape:zoom="1" inkscape:cx="91.558992" inkscape:cy="89.87632" inkscape:window-x="-8" inkscape:window-y="-8" inkscape:window-maximized="1" inkscape:current-layer="Layer_1"/>
<path d="m 64.566509,22.116383 v 20.404273 l 7.130526,4.489881 c 0.188058,0.05485 0.595516,0.05877 0.783574,0 L 103.16929,26.320259 c 0,-2.44867 -2.28412,-4.203876 -3.573094,-4.203876 H 64.566509 z" id="path3" inkscape:connector-curvature="0" style="fill:#0072c6"/>
<path d="m 64.566509,50.13308 6.507584,4.470291 c 0.916782,0.673874 2.021622,0 2.021622,0 -1.100922,0.673874 30.077495,-20.035993 30.077495,-20.035993 v 37.501863 c 0,4.082422 -2.61322,5.794531 -5.551621,5.794531 H 64.562591 V 50.13308 z" id="path5" inkscape:connector-curvature="0" style="fill:#0072c6"/>

Outlook
<g id="g23" transform="matrix(3.9178712,0,0,3.9178712,-13.481403,-41.384473)">
	<path d="m 11.321,20.958 c -0.566,0 -1.017,0.266 -1.35,0.797 -0.333,0.531 -0.5,1.234 -0.5,2.109 0,0.888 0.167,1.59 0.5,2.106 0.333,0.517 0.77,0.774 1.31,0.774 0.557,0 0.999,-0.251 1.325,-0.753 0.326,-0.502 0.49,-1.199 0.49,-2.09 0,-0.929 -0.158,-1.652 -0.475,-2.169 -0.317,-0.516 -0.75,-0.774 -1.3,-0.774 z" id="path25" inkscape:connector-curvature="0" style="fill:#0072c6"/>
	<path d="m 3.441,13.563 v 20.375 l 15.5,3.25 V 10.563 l -15.5,3 z m 10.372,13.632 c -0.655,0.862 -1.509,1.294 -2.563,1.294 -1.027,0 -1.863,-0.418 -2.51,-1.253 C 8.094,26.4 7.77,25.312 7.77,23.97 c 0,-1.417 0.328,-2.563 0.985,-3.438 0.657,-0.875 1.527,-1.313 2.61,-1.313 1.023,0 1.851,0.418 2.482,1.256 0.632,0.838 0.948,1.942 0.948,3.313 10e-4,1.409 -0.327,2.545 -0.982,3.407 z" id="path27" inkscape:connector-curvature="0" style="fill:#0072c6"/>
</g>

</svg>