<svg width="171" height="82" viewBox="0 0 171 82" fill="none" xmlns="http://www.w3.org/2000/svg">
<g filter="url(#filter0_d_108:2)">
<path d="M57.3359 2.35156L66.8281 2.45703C68.0938 2.45703 69.2422 2.76172 70.2734 3.37109C71.3281 3.98047 71.8555 4.76563 71.8555 5.72656C71.8555 6.14844 71.6797 6.71094 71.3281 7.41406C69.8047 10.4609 67.168 18.125 63.418 30.4062C59.6914 42.6641 57.3711 49.9414 56.457 52.2383C55.5664 54.5117 54.5352 56.6914 53.3633 58.7773C52.2148 60.8633 51.0312 62.668 49.8125 64.1914C48.5938 65.7383 47.2695 67.0742 45.8398 68.1992C44.4102 69.3477 42.9805 70.2852 41.5508 71.0117C40.1445 71.7383 38.5977 72.3125 36.9102 72.7344C33.8633 73.5312 30.3945 73.9297 26.5039 73.9297C24.1836 73.9297 23.0234 73.3086 23.0234 72.0664C23.0234 71.3164 23.6914 70.25 25.0273 68.8672C26.3867 67.5078 27.1719 66.6875 27.3828 66.4062C30.2188 62.75 33.3477 56.6797 36.7695 48.1953C34.3789 49.9531 31.5547 51.418 28.2969 52.5898C25.0625 53.7617 22.1797 54.3477 19.6484 54.3477C17.1172 54.3477 15.0547 54.1133 13.4609 53.6445C11.8672 53.1758 10.4141 52.4844 9.10156 51.5703C6.21875 49.5547 4.77734 46.4961 4.77734 42.3945C4.77734 40.4258 5.23438 37.9297 6.14844 34.9062C7.0625 31.8828 8.05859 29.1289 9.13672 26.6445C10.2383 24.1602 11.3281 21.7344 12.4062 19.3672C13.4844 17 14.082 15.6172 14.1992 15.2188C14.3398 14.8203 14.4102 14.4336 14.4102 14.0586C14.4102 12.5117 12.9805 11.5039 10.1211 11.0352C9.37109 10.918 8.78516 10.6836 8.36328 10.332C7.94141 9.95703 7.73047 9.45312 7.73047 8.82031C7.73047 8.16406 8.25781 7.4375 9.3125 6.64062C10.3672 5.82031 11.8438 5.07031 13.7422 4.39062C18.0781 2.79688 23.8438 2 31.0391 2C35.3281 2 37.4727 3.27734 37.4727 5.83203C37.4727 7.70703 35.457 13.1562 31.4258 22.1797C27.418 31.1797 25.4141 37.332 25.4141 40.6367C25.4141 43.7773 27.4062 45.3477 31.3906 45.3477C33.5 45.3477 35.832 44.9375 38.3867 44.1172C42.8164 32.4219 46.8125 19.1914 50.375 4.42578C50.5625 3.58203 51.1836 3.03125 52.2383 2.77344C53.3164 2.49219 55.0156 2.35156 57.3359 2.35156ZM121.039 26.3633C124.414 26.3633 126.102 27.1367 126.102 28.6836C126.102 29.668 125.539 31.4492 124.414 34.0273C123.289 36.582 122.352 38.4102 121.602 39.5117C120.852 40.6133 120.113 41.1641 119.387 41.1641C118.66 41.1641 117.793 40.8711 116.785 40.2852C115.777 39.6758 114.746 39.0195 113.691 38.3164C112.66 37.5898 111.336 36.8984 109.719 36.2422C108.102 35.5859 106.508 35.2109 104.938 35.1172C102.594 43.5078 101.281 48.1484 101 49.0391C100.742 49.9297 100.344 50.832 99.8047 51.7461C99.2656 52.6602 98.6211 53.4102 97.8711 53.9961C97.1211 54.582 96.3477 55.0625 95.5508 55.4375C94.7773 55.8125 93.8281 56.0938 92.7031 56.2812C87.3828 57.1016 82.2266 56.9023 77.2344 55.6836C74.4453 55.0039 72.2188 54.1719 70.5547 53.1875C68.8906 52.1797 68.0586 51.207 68.0586 50.2695C68.1289 49.7305 68.3867 49.3086 68.832 49.0039C69.2539 48.6758 69.7578 48.5117 70.3438 48.5117C72.5 48.5117 74.082 48.1719 75.0898 47.4922C76.1211 46.7891 77.0938 45.5117 78.0078 43.6602C78.9219 41.7852 79.7773 39.6992 80.5742 37.4023C81.3945 35.1055 82.1445 32.9961 82.8242 31.0742C83.5039 29.1523 84.2891 27.1953 85.1797 25.2031C87.125 20.9141 89.6094 18.043 92.6328 16.5898C95.6562 15.1367 100.238 14.4102 106.379 14.4102C110.035 14.4102 111.863 15.0195 111.863 16.2383C111.863 16.707 111.641 17.375 111.195 18.2422C109.438 21.5469 107.82 25.5898 106.344 30.3711C108.336 29.3164 110.656 28.3906 113.305 27.5938C115.977 26.7734 118.555 26.3633 121.039 26.3633ZM131.762 19.0508C128.363 16.0742 124.215 13.6719 119.316 11.8438C114.441 9.99219 109.52 9.06641 104.551 9.06641C101.574 9.06641 97.9883 9.46484 93.793 10.2617C89.5977 11.0352 86.4922 11.8789 84.4766 12.793C82.4609 13.6836 81.1367 14.1289 80.5039 14.1289C79.7305 14.1289 79.3438 13.7656 79.3438 13.0391C79.3438 12.2891 79.9883 11.3867 81.2773 10.332C82.5664 9.27734 84.4414 8.1875 86.9023 7.0625C89.3867 5.9375 92.1875 4.88281 95.3047 3.89844C102.43 1.69531 110.234 0.59375 118.719 0.59375C124.25 0.59375 128.879 0.828125 132.605 1.29688C139.52 2.11719 142.977 3.42969 142.977 5.23438C142.906 6.19531 142.438 7.78906 141.57 10.0156C140.703 12.2422 139.672 14.375 138.477 16.4141C137.281 18.4297 136.297 19.5547 135.523 19.7891C135.031 19.9297 134.469 20 133.836 20C133.227 20 132.535 19.6836 131.762 19.0508ZM164.773 53.0117C163.414 54.5352 161.621 55.7422 159.395 56.6328C157.191 57.5234 154.777 57.9688 152.152 57.9688C149.551 57.9688 147.348 57.3008 145.543 55.9648C143.738 54.6289 142.836 53.0117 142.836 51.1133C142.836 49.2148 143.527 47.4922 144.91 45.9453C146.316 44.375 148.121 43.1445 150.324 42.2539C152.527 41.3633 154.93 40.918 157.531 40.918C160.156 40.918 162.359 41.6094 164.141 42.9922C165.945 44.3516 166.848 45.9805 166.848 47.8789C166.848 49.7539 166.156 51.4648 164.773 53.0117Z" fill="#5D5FEF"/>
</g>
<defs>
<filter id="filter0_d_108:2" x="0.777344" y="0.59375" width="170.07" height="81.3359" filterUnits="userSpaceOnUse" color-interpolation-filters="sRGB">
<feFlood flood-opacity="0" result="BackgroundImageFix"/>
<feColorMatrix in="SourceAlpha" type="matrix" values="0 0 0 0 0 0 0 0 0 0 0 0 0 0 0 0 0 0 127 0" result="hardAlpha"/>
<feOffset dy="4"/>
<feGaussianBlur stdDeviation="2"/>
<feComposite in2="hardAlpha" operator="out"/>
<feColorMatrix type="matrix" values="0 0 0 0 0 0 0 0 0 0 0 0 0 0 0 0 0 0 0.25 0"/>
<feBlend mode="normal" in2="BackgroundImageFix" result="effect1_dropShadow_108:2"/>
<feBlend mode="normal" in="SourceGraphic" in2="effect1_dropShadow_108:2" result="shape"/>
</filter>
</defs>
</svg>
